<?xml version="1.0" encoding="iso-8859-1"?>
<!-- Generator: Adobe Illustrator 18.0.0, SVG Export Plug-In . SVG Version: 6.00 Build 0)  -->
<!DOCTYPE svg PUBLIC "-//W3C//DTD SVG 1.1//EN" "http://www.w3.org/Graphics/SVG/1.1/DTD/svg11.dtd">
<svg version="1.1" id="Capa_1" xmlns="http://www.w3.org/2000/svg" xmlns:xlink="http://www.w3.org/1999/xlink" x="0px" y="0px"
	 viewBox="0 0 54.644 54.644" style="enable-background:new 0 0 54.644 54.644;" xml:space="preserve">
<g>
	<path style="fill:#FBD490;" d="M9.419,54.615c-0.373,0-0.73-0.209-0.902-0.567c-0.239-0.498-0.029-1.095,0.469-1.334l43.173-20.722
		c0.499-0.242,1.096-0.028,1.334,0.469c0.239,0.498,0.029,1.095-0.469,1.334L9.851,54.516C9.711,54.584,9.565,54.615,9.419,54.615z"
		/>
	<path style="fill:#EEAF4B;" d="M6.332,44.812c-0.484,0-0.909-0.352-0.986-0.845c-0.085-0.546,0.287-1.058,0.833-1.144l47.31-7.417
		c0.559-0.076,1.058,0.289,1.144,0.833c0.085,0.546-0.288,1.058-0.833,1.144L6.488,44.8C6.436,44.808,6.384,44.812,6.332,44.812z"/>
	<path style="fill:#38454F;" d="M36.299,6.39c-0.03-3.191-8.143-5.775-18.149-5.775S0.031,3.199,0.001,6.39v21.45
		c0.03,3.191,8.143,5.775,18.149,5.775s18.119-2.584,18.149-5.775V6.39z"/>
	<ellipse style="fill:#FBD490;" cx="18.15" cy="5.822" rx="18.15" ry="5.793"/>
	<path style="fill:#ED7161;" d="M17.438,2.358C13.241,2.578,9.897,3.801,8.71,5.549c-0.502,0.74-0.625,1.552-0.366,2.318
		c0.074,0.241,0.678,1.925,3.525,3.384c1.513,0.178,3.115,0.296,4.786,0.34c0.005-0.451-0.279-0.866-0.736-0.981
		c-4.838-1.221-5.662-3.328-5.671-3.354c-0.046-0.136-0.068-0.312,0.117-0.584c0.658-0.969,3.184-2.107,7.177-2.316
		c0.063-0.004,0.125-0.007,0.188-0.01c-1.49,0.213-2.629,0.743-3.128,1.479c-0.309,0.455-0.386,0.981-0.216,1.481
		c0.611,1.804,3.788,2.474,6.482,2.331c2.839-0.149,5.031-0.973,5.864-2.201c0.381-0.563,0.478-1.208,0.271-1.819
		C26.182,3.191,21.568,2.144,17.438,2.358z M20.763,7.64c-2.348,0.12-3.874-0.458-4.342-0.824c0.319-0.198,1.077-0.494,2.319-0.559
		c0.552-0.029,0.976-0.5,0.946-1.052c-0.021-0.395-0.267-0.723-0.607-0.868c3.363,0.102,5.759,1.116,6.033,1.913
		C25.037,6.585,23.636,7.49,20.763,7.64z"/>
	<g>
		<path style="fill:#455560;" d="M36.299,22.026v-6.729c-0.521-0.002-0.973,0.411-0.998,0.946c-0.079,1.713-3.253,2.745-4.448,3.134
			c-0.525,0.171-0.813,0.735-0.642,1.261c0.138,0.422,0.529,0.69,0.951,0.69c0.102,0,0.207-0.016,0.309-0.049
			c0.931-0.303,2.544-0.831,3.838-1.752c-0.001,0.012-0.008,0.021-0.008,0.033c-0.116,2.506-5.649,3.577-7.732,3.98l-0.157,0.03
			c-0.542,0.105-0.896,0.63-0.791,1.172c0.093,0.478,0.511,0.81,0.98,0.81c0.063,0,0.127-0.006,0.191-0.019l0.156-0.03
			C30.063,25.095,34.354,24.256,36.299,22.026z"/>
		<path style="fill:#455560;" d="M36.299,26.222v-3.499c-0.521,0.014-0.973,0.41-0.998,0.945c-0.099,2.152-3.732,3.656-10.797,4.468
			l-0.244,0.028c-0.549,0.063-0.942,0.56-0.878,1.108c0.059,0.51,0.491,0.885,0.992,0.885c0.039,0,0.078-0.002,0.117-0.007
			l0.241-0.027C27.705,29.782,33.882,29.067,36.299,26.222z"/>
	</g>
</g>
<g>
</g>
<g>
</g>
<g>
</g>
<g>
</g>
<g>
</g>
<g>
</g>
<g>
</g>
<g>
</g>
<g>
</g>
<g>
</g>
<g>
</g>
<g>
</g>
<g>
</g>
<g>
</g>
<g>
</g>
</svg>
